
<svg
        
        width="53"
        height="59"
        viewBox="0 0 53 59"
        xmlns="http://www.w3.org/2000/svg"
      >
        <ellipse cx="5.60706" cy="45.0488" rx="5.60706" ry="8.00585"></ellipse>
        <ellipse cx="5.60706" cy="47.6698" rx="5.60706" ry="10.6268"></ellipse>
        <ellipse cx="20.5259" cy="40.5217" rx="19.0239" ry="8.72064"></ellipse>
        <ellipse cx="20.526" cy="47.6698" rx="5.60706" ry="10.6268"></ellipse>
        <ellipse cx="35.6452" cy="47.6698" rx="5.80731" ry="10.6268"></ellipse>
        <ellipse
          cx="7.17819"
          cy="9.4969"
          rx="7.17819"
          ry="9.4969"
          transform="matrix(0.898231 -0.439524 0.475184 0.879887 24.7314 28.2944)"
        ></ellipse>
        <path
          fill-rule="evenodd"
          clip-rule="evenodd"
          d="M49.5648 3.93823C51.7259 5.9052 53.0005 8.32546 53.0005 10.9425C53.0005 17.5319 44.9203 22.8736 34.9529 22.8736C25.7128 22.8736 18.0946 18.283 17.0321 12.3634L49.5648 3.93823Z"
        ></path>
        <ellipse
          cx="4.44648"
          cy="4.99733"
          rx="4.44648"
          ry="4.99733"
          transform="matrix(-0.876296 0.481774 0.586148 0.810204 47.1421 0)"
        ></ellipse>
        <ellipse
          cx="4.44648"
          cy="4.99733"
          rx="4.44648"
          ry="4.99733"
          transform="matrix(-0.876296 0.481774 0.586148 0.810204 47.1421 0)"
        ></ellipse>
        <ellipse
          cx="4.44648"
          cy="4.99733"
          rx="4.44648"
          ry="4.99733"
          transform="matrix(-0.876298 0.48177 0.586152 0.810201 38.5181 1.86328)"
        ></ellipse>
        <ellipse
          cx="4.44648"
          cy="4.99733"
          rx="4.44648"
          ry="4.99733"
          transform="matrix(-0.876298 0.48177 0.586152 0.810201 38.5181 1.86328)"
        ></ellipse>
        <ellipse
          cx="4.44648"
          cy="4.99733"
          rx="4.44648"
          ry="4.99733"
          transform="matrix(-0.876296 0.481774 0.586148 0.810204 30.1162 3.46973)"
        ></ellipse>
        <ellipse
          cx="4.44648"
          cy="4.99733"
          rx="4.44648"
          ry="4.99733"
          transform="matrix(-0.876296 0.481774 0.586148 0.810204 22.7451 5.84717)"
        ></ellipse>
        <ellipse cx="20.6924" cy="41.1092" rx="17.2216" ry="6.54446"></ellipse>
        <ellipse cx="35.5781" cy="47.8443" rx="3.40428" ry="7.30692"></ellipse>
        <ellipse cx="35.5781" cy="46.7009" rx="3.40428" ry="8.45061"></ellipse>
        <ellipse cx="20.4922" cy="48.3528" rx="3.40428" ry="7.30692"></ellipse>
        <ellipse cx="5.47319" cy="46.9548" rx="3.60454" ry="8.19645"></ellipse>
        <ellipse
          cx="5.51473"
          cy="7.4985"
          rx="5.51473"
          ry="7.4985"
          transform="matrix(0.896382 -0.443283 0.4713 0.881973 26.6138 30.2356)"
        ></ellipse>
        <path
          fill-rule="evenodd"
          clip-rule="evenodd"
          d="M47.2757 6.82764C48.9666 8.27007 49.9639 10.0449 49.9639 11.964C49.9639 16.7962 43.6415 20.7135 35.8425 20.7135C28.6126 20.7135 22.6517 17.3471 21.8202 13.0061L47.2757 6.82764Z"
        ></path>
        <ellipse
          cx="3.42971"
          cy="3.75085"
          rx="3.42971"
          ry="3.75085"
          transform="matrix(-0.888932 0.458039 0.611047 0.791595 45.3794 3.93945)"
        ></ellipse>
        <ellipse
          cx="3.42971"
          cy="3.75085"
          rx="3.42971"
          ry="3.75085"
          transform="matrix(-0.888932 0.458039 0.611047 0.791595 45.3794 3.93945)"
        ></ellipse>
        <ellipse
          cx="3.42971"
          cy="3.75085"
          rx="3.42971"
          ry="3.75085"
          transform="matrix(-0.888932 0.45804 0.611046 0.791595 38.6318 5.30615)"
        ></ellipse>
        <ellipse
          cx="3.42971"
          cy="3.75085"
          rx="3.42971"
          ry="3.75085"
          transform="matrix(-0.888932 0.45804 0.611046 0.791595 38.6318 5.30615)"
        ></ellipse>
        <ellipse
          cx="3.42971"
          cy="3.75085"
          rx="3.42971"
          ry="3.75085"
          transform="matrix(-0.888932 0.458039 0.611047 0.791595 32.0571 6.48364)"
        ></ellipse>
        <ellipse
          cx="3.42971"
          cy="3.75085"
          rx="3.42971"
          ry="3.75085"
          transform="matrix(-0.888931 0.45804 0.611046 0.791595 26.2905 8.22705)"
        ></ellipse>
      </svg>